<?xml version="1.0" encoding="utf-8"?>
<!-- Generator: Adobe Illustrator 25.2.3, SVG Export Plug-In . SVG Version: 6.00 Build 0)  -->
<svg version="1.1" id="Layer_1" xmlns="http://www.w3.org/2000/svg" xmlns:xlink="http://www.w3.org/1999/xlink" x="0px" y="0px"
	 viewBox="0 0 857 196" enable-background="new 0 0 857 196" xml:space="preserve">
<g transform="translate(221.154 207.94)">
	<g>
		<defs>
			<rect id="SVGID_1_" x="-186.15" y="-145.94" width="822" height="72"/>
		</defs>
		<clipPath id="SVGID_2_">
			<use xlink:href="#SVGID_1_"  overflow="visible"/>
		</clipPath>
		<g transform="translate(-186.154 -145.94)" clip-path="url(#SVGID_2_)">
			<g transform="translate(186.154 145.94)">
				<g transform="translate(-124.154 -145.94) rotate(90)">
					<path fill="none" d="M54,0l18,31L54,62H18L0,31L18,0H54z"/>
					<path fill="#919191" d="M18.17,0.3L0.35,31l17.83,30.7h35.65L71.65,31L53.83,0.3H18.17 M18,0h36l18,31L54,62H18L0,31L18,0z"/>
				</g>
			</g>
			<g transform="translate(256.154 145.94)">
				<g transform="translate(-124.154 -145.94) rotate(90)">
					<path fill="none" d="M54,0l18,31L54,62H18L0,31L18,0H54z"/>
					<path fill="#919191" d="M18.17,0.3L0.35,31l17.83,30.7h35.65L71.65,31L53.83,0.3H18.17 M18,0h36l18,31L54,62H18L0,31L18,0z"/>
				</g>
			</g>
			<g transform="translate(326.154 145.94)">
				<g transform="translate(-124.154 -145.94) rotate(90)">
					<path fill="none" d="M54,0l18,31L54,62H18L0,31L18,0H54z"/>
					<path fill="#919191" d="M18.17,0.3L0.35,31l17.83,30.7h35.65L71.65,31L53.83,0.3H18.17 M18,0h36l18,31L54,62H18L0,31L18,0z"/>
				</g>
			</g>
			<g transform="translate(396.154 145.94)">
				<g transform="translate(-124.154 -145.94) rotate(90)">
					<path fill="none" d="M54,0l18,31L54,62H18L0,31L18,0H54z"/>
					<path fill="#919191" d="M18.17,0.3L0.35,31l17.83,30.7h35.65L71.65,31L53.83,0.3H18.17 M18,0h36l18,31L54,62H18L0,31L18,0z"/>
				</g>
			</g>
			<g transform="translate(466.154 145.94)">
				<g transform="translate(-124.154 -145.94) rotate(90)">
					<path fill="none" d="M54,0l18,31L54,62H18L0,31L18,0H54z"/>
					<path fill="#919191" d="M18.17,0.3L0.35,31l17.83,30.7h35.65L71.65,31L53.83,0.3H18.17 M18,0h36l18,31L54,62H18L0,31L18,0z"/>
				</g>
			</g>
			<g transform="translate(536.154 145.94)">
				<g transform="translate(-124.154 -145.94) rotate(90)">
					<path fill="none" d="M54,0l18,31L54,62H18L0,31L18,0H54z"/>
					<path fill="#919191" d="M18.17,0.3L0.35,31l17.83,30.7h35.65L71.65,31L53.83,0.3H18.17 M18,0h36l18,31L54,62H18L0,31L18,0z"/>
				</g>
			</g>
			<g transform="translate(606.154 145.94)">
				<g transform="translate(-124.154 -145.94) rotate(90)">
					<path fill="none" d="M54,0l18,31L54,62H18L0,31L18,0H54z"/>
					<path fill="#919191" d="M18.17,0.3L0.35,31l17.83,30.7h35.65L71.65,31L53.83,0.3H18.17 M18,0h36l18,31L54,62H18L0,31L18,0z"/>
				</g>
			</g>
			<g transform="translate(676.154 145.94)">
				<g transform="translate(-124.154 -145.94) rotate(90)">
					<path fill="none" d="M54,0l18,31L54,62H18L0,31L18,0H54z"/>
					<path fill="#919191" d="M18.17,0.3L0.35,31l17.83,30.7h35.65L71.65,31L53.83,0.3H18.17 M18,0h36l18,31L54,62H18L0,31L18,0z"/>
				</g>
			</g>
			<g transform="translate(746.154 145.94)">
				<g transform="translate(-124.154 -145.94) rotate(90)">
					<path fill="none" d="M54,0l18,31L54,62H18L0,31L18,0H54z"/>
					<path fill="#919191" d="M18.17,0.3L0.35,31l17.83,30.7h35.65L71.65,31L53.83,0.3H18.17 M18,0h36l18,31L54,62H18L0,31L18,0z"/>
				</g>
			</g>
			<g transform="translate(816.154 145.94)">
				<g transform="translate(-124.154 -145.94) rotate(90)">
					<path fill="none" d="M54,0l18,31L54,62H18L0,31L18,0H54z"/>
					<path fill="#919191" d="M18.17,0.3L0.35,31l17.83,30.7h35.65L71.65,31L53.83,0.3H18.17 M18,0h36l18,31L54,62H18L0,31L18,0z"/>
				</g>
			</g>
			<g transform="translate(886.154 145.94)">
				<g transform="translate(-124.154 -145.94) rotate(90)">
					<path fill="none" d="M54,0l18,31L54,62H18L0,31L18,0H54z"/>
					<path fill="#919191" d="M18.17,0.3L0.35,31l17.83,30.7h35.65L71.65,31L53.83,0.3H18.17 M18,0h36l18,31L54,62H18L0,31L18,0z"/>
				</g>
			</g>
			<g transform="translate(956.154 145.94)">
				<g transform="translate(-124.154 -145.94) rotate(90)">
					<path fill="none" d="M54,0l18,31L54,62H18L0,31L18,0H54z"/>
					<path fill="#919191" d="M18.17,0.3L0.35,31l17.83,30.7h35.65L71.65,31L53.83,0.3H18.17 M18,0h36l18,31L54,62H18L0,31L18,0z"/>
				</g>
			</g>
		</g>
	</g>
	<g>
		<defs>
			<rect id="SVGID_3_" x="-221.15" y="-83.94" width="857" height="72"/>
		</defs>
		<clipPath id="SVGID_4_">
			<use xlink:href="#SVGID_3_"  overflow="visible"/>
		</clipPath>
		<g transform="translate(-221.154 -83.94)" clip-path="url(#SVGID_4_)">
			<g transform="translate(186.154 145.94)">
				<g transform="translate(-124.154 -145.94) rotate(90)">
					<path fill="none" d="M54,0l18,31L54,62H18L0,31L18,0H54z"/>
					<path fill="#919191" d="M18.17,0.3L0.35,31l17.83,30.7h35.65L71.65,31L53.83,0.3H18.17 M18,0h36l18,31L54,62H18L0,31L18,0z"/>
				</g>
			</g>
			<g transform="translate(256.154 145.94)">
				<g transform="translate(-124.154 -145.94) rotate(90)">
					<path fill="none" d="M54,0l18,31L54,62H18L0,31L18,0H54z"/>
					<path fill="#919191" d="M18.17,0.3L0.35,31l17.83,30.7h35.65L71.65,31L53.83,0.3H18.17 M18,0h36l18,31L54,62H18L0,31L18,0z"/>
				</g>
			</g>
			<g transform="translate(326.154 145.94)">
				<g transform="translate(-124.154 -145.94) rotate(90)">
					<path fill="none" d="M54,0l18,31L54,62H18L0,31L18,0H54z"/>
					<path fill="#919191" d="M18.17,0.3L0.35,31l17.83,30.7h35.65L71.65,31L53.83,0.3H18.17 M18,0h36l18,31L54,62H18L0,31L18,0z"/>
				</g>
			</g>
			<g transform="translate(396.154 145.94)">
				<g transform="translate(-124.154 -145.94) rotate(90)">
					<path fill="none" d="M54,0l18,31L54,62H18L0,31L18,0H54z"/>
					<path fill="#919191" d="M18.17,0.3L0.35,31l17.83,30.7h35.65L71.65,31L53.83,0.3H18.17 M18,0h36l18,31L54,62H18L0,31L18,0z"/>
				</g>
			</g>
			<g transform="translate(466.154 145.94)">
				<g transform="translate(-124.154 -145.94) rotate(90)">
					<path fill="none" d="M54,0l18,31L54,62H18L0,31L18,0H54z"/>
					<path fill="#919191" d="M18.17,0.3L0.35,31l17.83,30.7h35.65L71.65,31L53.83,0.3H18.17 M18,0h36l18,31L54,62H18L0,31L18,0z"/>
				</g>
			</g>
			<g transform="translate(536.154 145.94)">
				<g transform="translate(-124.154 -145.94) rotate(90)">
					<path fill="none" d="M54,0l18,31L54,62H18L0,31L18,0H54z"/>
					<path fill="#919191" d="M18.17,0.3L0.35,31l17.83,30.7h35.65L71.65,31L53.83,0.3H18.17 M18,0h36l18,31L54,62H18L0,31L18,0z"/>
				</g>
			</g>
			<g transform="translate(606.154 145.94)">
				<g transform="translate(-124.154 -145.94) rotate(90)">
					<path fill="none" d="M54,0l18,31L54,62H18L0,31L18,0H54z"/>
					<path fill="#919191" d="M18.17,0.3L0.35,31l17.83,30.7h35.65L71.65,31L53.83,0.3H18.17 M18,0h36l18,31L54,62H18L0,31L18,0z"/>
				</g>
			</g>
			<g transform="translate(676.154 145.94)">
				<g transform="translate(-124.154 -145.94) rotate(90)">
					<path fill="none" d="M54,0l18,31L54,62H18L0,31L18,0H54z"/>
					<path fill="#919191" d="M18.17,0.3L0.35,31l17.83,30.7h35.65L71.65,31L53.83,0.3H18.17 M18,0h36l18,31L54,62H18L0,31L18,0z"/>
				</g>
			</g>
			<g transform="translate(746.154 145.94)">
				<g transform="translate(-124.154 -145.94) rotate(90)">
					<path fill="none" d="M54,0l18,31L54,62H18L0,31L18,0H54z"/>
					<path fill="#919191" d="M18.17,0.3L0.35,31l17.83,30.7h35.65L71.65,31L53.83,0.3H18.17 M18,0h36l18,31L54,62H18L0,31L18,0z"/>
				</g>
			</g>
			<g transform="translate(816.154 145.94)">
				<g transform="translate(-124.154 -145.94) rotate(90)">
					<path fill="none" d="M54,0l18,31L54,62H18L0,31L18,0H54z"/>
					<path fill="#919191" d="M18.17,0.3L0.35,31l17.83,30.7h35.65L71.65,31L53.83,0.3H18.17 M18,0h36l18,31L54,62H18L0,31L18,0z"/>
				</g>
			</g>
			<g transform="translate(886.154 145.94)">
				<g transform="translate(-124.154 -145.94) rotate(90)">
					<path fill="none" d="M54,0l18,31L54,62H18L0,31L18,0H54z"/>
					<path fill="#919191" d="M18.17,0.3L0.35,31l17.83,30.7h35.65L71.65,31L53.83,0.3H18.17 M18,0h36l18,31L54,62H18L0,31L18,0z"/>
				</g>
			</g>
			<g transform="translate(956.154 145.94)">
				<g transform="translate(-124.154 -145.94) rotate(90)">
					<path fill="none" d="M54,0l18,31L54,62H18L0,31L18,0H54z"/>
					<path fill="#919191" d="M18.17,0.3L0.35,31l17.83,30.7h35.65L71.65,31L53.83,0.3H18.17 M18,0h36l18,31L54,62H18L0,31L18,0z"/>
				</g>
			</g>
			<g transform="translate(1026.154 145.94)">
				<g transform="translate(-124.154 -145.94) rotate(90)">
					<path fill="none" d="M54,0l18,31L54,62H18L0,31L18,0H54z"/>
					<path fill="#919191" d="M18.17,0.3L0.35,31l17.83,30.7h35.65L71.65,31L53.83,0.3H18.17 M18,0h36l18,31L54,62H18L0,31L18,0z"/>
				</g>
			</g>
		</g>
	</g>
	<g>
		<defs>
			<rect id="SVGID_5_" x="-221.15" y="-207.94" width="857" height="72"/>
		</defs>
		<clipPath id="SVGID_6_">
			<use xlink:href="#SVGID_5_"  overflow="visible"/>
		</clipPath>
		<g transform="translate(-221.154 -207.94)" clip-path="url(#SVGID_6_)">
			<g transform="translate(186.154 145.94)">
				<g transform="translate(-124.154 -145.94) rotate(90)">
					<path fill="none" d="M54,0l18,31L54,62H18L0,31L18,0H54z"/>
					<path fill="#919191" d="M18.17,0.3L0.35,31l17.83,30.7h35.65L71.65,31L53.83,0.3H18.17 M18,0h36l18,31L54,62H18L0,31L18,0z"/>
				</g>
			</g>
			<g transform="translate(256.154 145.94)">
				<g transform="translate(-124.154 -145.94) rotate(90)">
					<path fill="none" d="M54,0l18,31L54,62H18L0,31L18,0H54z"/>
					<path fill="#919191" d="M18.17,0.3L0.35,31l17.83,30.7h35.65L71.65,31L53.83,0.3H18.17 M18,0h36l18,31L54,62H18L0,31L18,0z"/>
				</g>
			</g>
			<g transform="translate(326.154 145.94)">
				<g transform="translate(-124.154 -145.94) rotate(90)">
					<path fill="none" d="M54,0l18,31L54,62H18L0,31L18,0H54z"/>
					<path fill="#919191" d="M18.17,0.3L0.35,31l17.83,30.7h35.65L71.65,31L53.83,0.3H18.17 M18,0h36l18,31L54,62H18L0,31L18,0z"/>
				</g>
			</g>
			<g transform="translate(396.154 145.94)">
				<g transform="translate(-124.154 -145.94) rotate(90)">
					<path fill="none" d="M54,0l18,31L54,62H18L0,31L18,0H54z"/>
					<path fill="#919191" d="M18.17,0.3L0.35,31l17.83,30.7h35.65L71.65,31L53.83,0.3H18.17 M18,0h36l18,31L54,62H18L0,31L18,0z"/>
				</g>
			</g>
			<g transform="translate(466.154 145.94)">
				<g transform="translate(-124.154 -145.94) rotate(90)">
					<path fill="none" d="M54,0l18,31L54,62H18L0,31L18,0H54z"/>
					<path fill="#919191" d="M18.17,0.3L0.35,31l17.83,30.7h35.65L71.65,31L53.83,0.3H18.17 M18,0h36l18,31L54,62H18L0,31L18,0z"/>
				</g>
			</g>
			<g transform="translate(536.154 145.94)">
				<g transform="translate(-124.154 -145.94) rotate(90)">
					<path fill="none" d="M54,0l18,31L54,62H18L0,31L18,0H54z"/>
					<path fill="#919191" d="M18.17,0.3L0.35,31l17.83,30.7h35.65L71.65,31L53.83,0.3H18.17 M18,0h36l18,31L54,62H18L0,31L18,0z"/>
				</g>
			</g>
			<g transform="translate(606.154 145.94)">
				<g transform="translate(-124.154 -145.94) rotate(90)">
					<path fill="none" d="M54,0l18,31L54,62H18L0,31L18,0H54z"/>
					<path fill="#919191" d="M18.17,0.3L0.35,31l17.83,30.7h35.65L71.65,31L53.83,0.3H18.17 M18,0h36l18,31L54,62H18L0,31L18,0z"/>
				</g>
			</g>
			<g transform="translate(676.154 145.94)">
				<g transform="translate(-124.154 -145.94) rotate(90)">
					<path fill="none" d="M54,0l18,31L54,62H18L0,31L18,0H54z"/>
					<path fill="#919191" d="M18.17,0.3L0.35,31l17.83,30.7h35.65L71.65,31L53.83,0.3H18.17 M18,0h36l18,31L54,62H18L0,31L18,0z"/>
				</g>
			</g>
			<g transform="translate(746.154 145.94)">
				<g transform="translate(-124.154 -145.94) rotate(90)">
					<path fill="none" d="M54,0l18,31L54,62H18L0,31L18,0H54z"/>
					<path fill="#919191" d="M18.17,0.3L0.35,31l17.83,30.7h35.65L71.65,31L53.83,0.3H18.17 M18,0h36l18,31L54,62H18L0,31L18,0z"/>
				</g>
			</g>
			<g transform="translate(816.154 145.94)">
				<g transform="translate(-124.154 -145.94) rotate(90)">
					<path fill="none" d="M54,0l18,31L54,62H18L0,31L18,0H54z"/>
					<path fill="#919191" d="M18.17,0.3L0.35,31l17.83,30.7h35.65L71.65,31L53.83,0.3H18.17 M18,0h36l18,31L54,62H18L0,31L18,0z"/>
				</g>
			</g>
			<g transform="translate(886.154 145.94)">
				<g transform="translate(-124.154 -145.94) rotate(90)">
					<path fill="none" d="M54,0l18,31L54,62H18L0,31L18,0H54z"/>
					<path fill="#919191" d="M18.17,0.3L0.35,31l17.83,30.7h35.65L71.65,31L53.83,0.3H18.17 M18,0h36l18,31L54,62H18L0,31L18,0z"/>
				</g>
			</g>
			<g transform="translate(956.154 145.94)">
				<g transform="translate(-124.154 -145.94) rotate(90)">
					<path fill="none" d="M54,0l18,31L54,62H18L0,31L18,0H54z"/>
					<path fill="#919191" d="M18.17,0.3L0.35,31l17.83,30.7h35.65L71.65,31L53.83,0.3H18.17 M18,0h36l18,31L54,62H18L0,31L18,0z"/>
				</g>
			</g>
			<g transform="translate(1026.154 145.94)">
				<g transform="translate(-124.154 -145.94) rotate(90)">
					<path fill="none" d="M54,0l18,31L54,62H18L0,31L18,0H54z"/>
					<path fill="#919191" d="M18.17,0.3L0.35,31l17.83,30.7h35.65L71.65,31L53.83,0.3H18.17 M18,0h36l18,31L54,62H18L0,31L18,0z"/>
				</g>
			</g>
		</g>
	</g>
</g>
</svg>
