<svg xmlns="http://www.w3.org/2000/svg" width="115.016" height="26.611" viewBox="0 0 115.016 26.611"><g transform="translate(-0.812 26.822)"><path d="M29.685-9.993h1.768c2.306,0,3.139-1.66,3.139-3.759s-.833-3.759-3.156-3.759H29.685ZM26.6-20.248h4.785c3.762,0,6.293,1.879,6.293,6.5s-2.531,6.5-6.293,6.5H26.6Z" fill="#19171b"/><path d="M37.971-7.255V-20.248h9.085v2.518h-6v2.373h5.6v2.517h-5.6v3.067h6.6v2.518Z" fill="#19171b"/><path d="M50.73-14.336h2.826A1.543,1.543,0,0,0,55.2-16.088a1.543,1.543,0,0,0-1.647-1.752H50.73Zm-3.086-5.913h6.172c2.775,0,4.474,1.351,4.474,4.271a3.565,3.565,0,0,1-2.549,3.5l2.826,5.22h-3.45l-2.428-4.672H50.73v4.672H47.644Z" fill="#19171b"/><path d="M61.548-15.139h2.566c.988,0,1.613-.4,1.613-1.35,0-1.1-.59-1.351-1.613-1.351H61.548Zm.035,5.475H64.1c1.63,0,2.08-.676,2.08-1.515,0-1.076-.381-1.551-1.526-1.551H61.583ZM58.6-20.249h6.034c2.5,0,4.179.913,4.179,3.34,0,1.66-.9,2.537-2.584,2.938v.036c1.682.128,3.034,1.059,3.034,2.975,0,2.682-1.907,3.7-5.045,3.7H58.6Z" fill="#19171b"/><path d="M69.556-7.255h3.086V-20.248H69.556Z" fill="#19171b" fill-rule="evenodd"/><path d="M82.107-16.179a3.136,3.136,0,0,0-2.913-1.7c-1.89,0-3.172,1.277-3.172,4.124,0,2.518,1.074,4.124,3.172,4.124a2.632,2.632,0,0,0,2.739-2.354H79.195V-14.5h5.34v7.245H82.143V-8.424A4.552,4.552,0,0,1,78.553-6.89c-3.728,0-5.618-2.847-5.618-6.807s2.029-6.917,6.051-6.917a6.318,6.318,0,0,1,5.687,3.249Z" fill="#19171b"/><path d="M95.523-11.781c0,3.558-2.861,4.891-5.236,4.891-2.357,0-5.218-1.333-5.218-4.891v-8.468h3.085v8.194c0,1.46.538,2.537,2.133,2.537,1.612,0,2.15-1.077,2.15-2.537v-8.194h3.086Z" fill="#19171b"/><path d="M96.285-20.249h4.525L103-10.594h.034l2.254-9.654h4.473V-7.255h-2.913V-17.347h-.034L104.364-7.255h-2.722L99.129-17.347h-.035V-7.255H96.285Z" fill="#19171b"/><path d="M112.668-17.939h.482c.353,0,.634-.043.634-.389,0-.324-.281-.381-.634-.381h-.482Zm-.59-1.274h1.173c.727,0,1.123.252,1.123.892a.8.8,0,0,1-.77.864l.792,1.289h-.634l-.777-1.267h-.317v1.267h-.59Zm1.057,3.671a2.048,2.048,0,0,0,2.016-2.145,2.048,2.048,0,0,0-2.016-2.145,2.039,2.039,0,0,0-2.014,2.145,2.039,2.039,0,0,0,2.014,2.145m0-4.837a2.652,2.652,0,0,1,2.693,2.692,2.652,2.652,0,0,1-2.693,2.692,2.651,2.651,0,0,1-2.691-2.692,2.651,2.651,0,0,1,2.691-2.692" fill="#19171b"/><path d="M12.377-13.517,1.259-19.927,12.44-26.411,23.558-20Z" fill="none" stroke="#19171b" stroke-width="0.447"/><path d="M12.42-26.822l11.535,6.631.026,13.306L12.47-.211.934-6.842.909-20.148,12.42-26.822m0,.761L1.569-19.769,1.592-7.224,12.468-.972,23.321-7.264,23.3-19.809Z" fill="#19171b"/><path d="M12.408-13.517l.073,12.59" fill="none" stroke="#19171b" stroke-width="0.447"/></g></svg>